<svg id="Layer_2" data-name="Layer 2" xmlns="http://www.w3.org/2000/svg" viewBox="0 0 400 400"><defs><style>.cls-1{fill:#fff;}.cls-2{fill:#00a7e1;}</style></defs><title>logo</title><rect class="cls-1" width="400" height="400" rx="15"/><path class="cls-2" d="M115.14,372c-22.31-20.45-10-52.92,26.69-72.16,12.35-6,21.51-8.82,37.45-8.42,10,.4,21.11,6,21.11,6,0-72.56-.4-209.65-.4-277,4,0,6.78-.4,12.35-.4V30.42a46.32,46.32,0,0,0,.4,8c4,25.25,9.56,35.28,37.45,66.14,35.45,39.69,45.81,63.34,45.81,95-.4,29.66-26.29,93-31.87,90.59,8-22.45,19.12-46.5,21.91-66.54,3.59-24.46-6.37-58.93-22.31-77-12.75-15.23-43-28.46-51.39-28.46,0,0-.39,145.91-.39,201.23,0,9.22-8.37,25.66-13.15,31.27C176.89,377.17,134.26,389.19,115.14,372Z"/></svg>